<svg xmlns="http://www.w3.org/2000/svg" data-name="Layer 1" viewBox="0 0 130 130"><rect width="128" height="81.82" x="1" y="24.09" fill="#1eb53a"/><polygon fill="#ffc943" points="65.05 35.45 111.53 64.76 64.79 94.55 18.47 64.76 65.05 35.45"/><path fill="#38388c" d="M84,64.76c0,.48,0,.94,0,1.4A18.71,18.71,0,0,1,83,70.81a19.22,19.22,0,0,1-37.46-6,19.34,19.34,0,0,1,2.27-9.05A19.21,19.21,0,0,1,84,64.76Z"/><path fill="#fff" d="M64.86,57.48a58.06,58.06,0,0,0-17-1.77,18.92,18.92,0,0,0-1.69,4.39,37,37,0,0,1,4.4-.24,55.44,55.44,0,0,1,13.28,1.71C71.5,63.5,78.31,66.78,83,70.81A18.71,18.71,0,0,0,84,66.16,54.07,54.07,0,0,0,64.86,57.48Z"/></svg>