<svg width="23" height="26" viewBox="0 0 23 26" fill="none" xmlns="http://www.w3.org/2000/svg">
<path d="M13.8825 4.70068L0.335759 4.70068C0.248147 4.70068 0.164124 4.66509 0.102173 4.60174C0.0402212 4.53839 0.00541782 4.45247 0.00541782 4.36288V0.337831C0.00541782 0.24824 0.0402212 0.162317 0.102173 0.0989666C0.164124 0.0356159 0.248147 2.6226e-05 0.335759 2.6226e-05L10.3589 2.6226e-05C11.381 2.6226e-05 12.3613 0.415243 13.0841 1.15433C13.8068 1.89342 14.2129 2.89584 14.2129 3.94107V4.36288C14.2129 4.45247 14.1781 4.53839 14.1161 4.60174C14.0542 4.66509 13.9702 4.70068 13.8825 4.70068Z" fill="#11ECC7"/>
<path d="M15.2553 17.4047C14.2056 17.4046 13.199 16.9781 12.4568 16.2191C11.7146 15.46 11.2977 14.4306 11.2977 13.3572C11.2977 13.2891 11.3107 13.2216 11.3362 13.1586C11.3617 13.0957 11.3991 13.0385 11.4463 12.9904C11.3737 13.0292 11.293 13.0495 11.2112 13.0494H0.508066C0.441368 13.0494 0.375307 13.0361 0.313662 13.01C0.252018 12.984 0.195999 12.9458 0.14881 12.8976C0.101622 12.8494 0.0641897 12.7921 0.0386553 12.7291C0.0131209 12.6661 -1.4519e-05 12.5986 1.20429e-08 12.5304V9.0019C1.20429e-08 8.86429 0.0534586 8.73231 0.148616 8.635C0.243773 8.5377 0.372834 8.48303 0.507406 8.48303H7.76007C8.80979 8.48303 9.81652 8.90944 10.5588 9.66847C11.3011 10.4275 11.7181 11.4569 11.7181 12.5304C11.7181 12.5985 11.705 12.6659 11.6795 12.7288C11.6541 12.7917 11.6167 12.8489 11.5696 12.897C11.6421 12.8581 11.7229 12.8379 11.8048 12.838H22.1775C22.2442 12.838 22.3102 12.8514 22.3717 12.8775C22.4333 12.9036 22.4892 12.9418 22.5364 12.99C22.5835 13.0382 22.6209 13.0954 22.6463 13.1584C22.6718 13.2214 22.685 13.2888 22.6849 13.357V16.8858C22.6849 17.0234 22.6315 17.1554 22.5363 17.2527C22.4412 17.35 22.3121 17.4047 22.1775 17.4047H15.2553Z" fill="#11ECC7"/>
<path d="M14.7208 4.3772H22.1777C22.3123 4.3772 22.4413 4.43186 22.5365 4.52917C22.6317 4.62648 22.6851 4.75845 22.6851 4.89606V8.42465C22.6851 8.56227 22.6317 8.69424 22.5365 8.79155C22.4413 8.88886 22.3123 8.94352 22.1777 8.94352H18.1714C17.1217 8.94352 16.1149 8.51709 15.3727 7.75805C14.6304 6.999 14.2134 5.96952 14.2134 4.89606C14.2134 4.75845 14.2668 4.62648 14.362 4.52917C14.4572 4.43186 14.5862 4.3772 14.7208 4.3772Z" fill="#F9A912"/>
<path d="M8.86062 21.2992H22.4074C22.495 21.2992 22.579 21.3348 22.641 21.3981C22.7029 21.4615 22.7377 21.5474 22.7377 21.637V25.662C22.7377 25.7516 22.7029 25.8376 22.641 25.9009C22.579 25.9643 22.495 25.9999 22.4074 25.9999H12.3843C11.3621 25.9999 10.3818 25.5846 9.65908 24.8455C8.93632 24.1065 8.53027 23.104 8.53027 22.0588V21.637C8.53027 21.5474 8.56508 21.4615 8.62703 21.3981C8.68898 21.3348 8.773 21.2992 8.86062 21.2992Z" fill="#11ECC7"/>
<path d="M8.29484 21.5103H0.513296C0.378724 21.5103 0.249663 21.4556 0.154506 21.3583C0.0593491 21.261 0.00588989 21.129 0.00588989 20.9914V17.4628C0.00588989 17.3252 0.0593491 17.1932 0.154506 17.0959C0.249663 16.9986 0.378724 16.9439 0.513296 16.9439H4.84419C5.89393 16.9439 6.90068 17.3704 7.64296 18.1294C8.38524 18.8884 8.80225 19.9179 8.80225 20.9914C8.80225 21.129 8.74879 21.261 8.65363 21.3583C8.55847 21.4556 8.42941 21.5103 8.29484 21.5103Z" fill="#11ECC7"/>
</svg>
